# xmcd
#
# Track frame offsets:
#	150
#	21704
#	39008
#	52400
#	72675
#	87686
#	105808
#	121053
#	137469
#	153009
#	168108
#	186070
#	202647
#	219237
#
# Disc length: 3192 seconds
#
# Revision: 1
# Processed by: cddbd v1.5.2PL0 Copyright (c) Steve Scherf et al.
# Submitted via: audiograbber 1.83.01
#
DISCID=b30c760e
DTITLE=Various Artist - Hot Hits Country Vol. 97
DYEAR=1900
DGENRE=Country
TTITLE0=Ty Herndon - No Mercy
TTITLE1=Clint Black W/Steve Warnier - Been There
TTITLE2=Trace Adkins - More
TTITLE3=Alan Jackson - The Blues Man
TTITLE4=Brad Paisley - Me Neither
TTITLE5=Clay Walker - The Chain Of Love
TTITLE6=Chad Brock - Yes
TTITLE7=Shane Minor - I Think You're Beautiful
TTITLE8=Rebecca Lynn Howard - Out Here In The Water
TTITLE9=Craig Morgan - Something To Write Home About
TTITLE10=Clay Davidson - Unconditional
TTITLE11=Wade Hayes - Up North
TTITLE12=Collin Raye - Couldn't Last A Moment
TTITLE13=Reba McEntire - I'll Be
EXTD=
EXTT0=
EXTT1=
EXTT2=
EXTT3=
EXTT4=
EXTT5=
EXTT6=
EXTT7=
EXTT8=
EXTT9=
EXTT10=
EXTT11=
EXTT12=
EXTT13=
PLAYORDER=
